HIERARCHY
ROOT Hips
{
	OFFSET 0.000000 71.427986 0.000000
	CHANNELS 6 Xposition Yposition Zposition Xrotation Yrotation Zrotation
	JOINT Pelvis
	{
		OFFSET 0.000000 0.000000 0.000000
		CHANNELS 3 Xrotation Yrotation Zrotation
		JOINT LeftUpLeg
		{
			OFFSET 6.797100 -2.508499 -1.318700
			CHANNELS 3 Xrotation Yrotation Zrotation
			JOINT LeftLeg
			{
				OFFSET 0.069008 -29.241863 0.690200
				CHANNELS 3 Xrotation Yrotation Zrotation
				JOINT LeftFoot
				{
					OFFSET -0.069008 -29.568123 -0.266800
					CHANNELS 3 Xrotation Yrotation Zrotation
					JOINT LeftToeBase
					{
						OFFSET 3.145500 -8.631000 16.059900
						CHANNELS 3 Xrotation Yrotation Zrotation
						End Site
						{
							OFFSET 0.000000 18.501587 0.000000
						}
					}
				}
			}
			JOINT Left_ShortSleeve
			{
				OFFSET 0.265923 -10.480953 1.153800
				CHANNELS 3 Xrotation Yrotation Zrotation
				End Site
				{
					OFFSET 1.725763 19.823879 0.000000
				}
			}
		}
		JOINT RightUpLeg
		{
			OFFSET -6.797100 -2.508499 -1.318700
			CHANNELS 3 Xrotation Yrotation Zrotation
			JOINT RightLeg
			{
				OFFSET -0.082453 -29.241932 0.688000
				CHANNELS 3 Xrotation Yrotation Zrotation
				JOINT RightFoot
				{
					OFFSET 0.082453 -29.568058 -0.264600
					CHANNELS 3 Xrotation Yrotation Zrotation
					JOINT RightToeBase
					{
						OFFSET -3.115300 -8.682800 16.113400
						CHANNELS 3 Xrotation Yrotation Zrotation
						End Site
						{
							OFFSET 0.000000 18.567114 0.000000
						}
					}
				}
			}
			JOINT Right_ShortSleeve
			{
				OFFSET -0.265923 -10.480953 1.153800
				CHANNELS 3 Xrotation Yrotation Zrotation
				End Site
				{
					OFFSET -1.725766 19.823910 0.000000
				}
			}
		}
	}
	JOINT Spine
	{
		OFFSET 0.000000 13.368103 0.470500
		CHANNELS 3 Xrotation Yrotation Zrotation
		JOINT Spine1
		{
			OFFSET 0.147000 13.837402 0.538800
			CHANNELS 3 Xrotation Yrotation Zrotation
			JOINT Spine2
			{
				OFFSET 0.168000 16.242897 -1.435500
				CHANNELS 3 Xrotation Yrotation Zrotation
				JOINT Neck
				{
					OFFSET 0.217200 18.631500 -1.679100
					CHANNELS 3 Xrotation Yrotation Zrotation
					JOINT Head
					{
						OFFSET 0.000000 6.599396 1.385900
						CHANNELS 3 Xrotation Yrotation Zrotation
						JOINT Hat
						{
							OFFSET -0.532200 27.220596 -10.096100
							CHANNELS 3 Xrotation Yrotation Zrotation
							End Site
							{
								OFFSET 0.000000 22.029861 0.000000
							}
						}
						JOINT HairD
						{
							OFFSET -10.777400 17.437393 -1.325900
							CHANNELS 3 Xrotation Yrotation Zrotation
							JOINT HairD1
							{
								OFFSET -3.290299 -11.051193 1.062200
								CHANNELS 3 Xrotation Yrotation Zrotation
								End Site
								{
									OFFSET 0.000000 11.579437 0.000000
								}
							}
						}
						JOINT HairB
						{
							OFFSET -10.777400 17.437393 1.467900
							CHANNELS 3 Xrotation Yrotation Zrotation
							JOINT HairB1
							{
								OFFSET -1.561200 -12.956299 3.590200
								CHANNELS 3 Xrotation Yrotation Zrotation
								End Site
								{
									OFFSET 0.000000 13.534866 0.000000
								}
							}
						}
						JOINT HairA
						{
							OFFSET 9.713100 17.437393 1.467900
							CHANNELS 3 Xrotation Yrotation Zrotation
							JOINT HairA1
							{
								OFFSET 1.561200 -12.956299 3.590200
								CHANNELS 3 Xrotation Yrotation Zrotation
								End Site
								{
									OFFSET 0.000000 13.534866 0.000000
								}
							}
						}
						JOINT HairC
						{
							OFFSET 9.713100 17.437393 -1.325900
							CHANNELS 3 Xrotation Yrotation Zrotation
							JOINT HairC1
							{
								OFFSET 3.290300 -11.051193 1.062200
								CHANNELS 3 Xrotation Yrotation Zrotation
								End Site
								{
									OFFSET 0.000000 11.579437 0.000000
								}
							}
						}
					}
				}
				JOINT LeftShoulder
				{
					OFFSET 5.101800 15.108002 -2.763700
					CHANNELS 3 Xrotation Yrotation Zrotation
					JOINT LeftArm
					{
						OFFSET 9.825497 2.506317 -1.597400
						CHANNELS 3 Xrotation Yrotation Zrotation
						JOINT LeftForeArm
						{
							OFFSET 21.966244 0.000000 0.000000
							CHANNELS 3 Xrotation Yrotation Zrotation
							JOINT LeftHand
							{
								OFFSET 33.879036 0.000000 0.000000
								CHANNELS 3 Xrotation Yrotation Zrotation
								JOINT LeftHandThumb1
								{
									OFFSET 6.715286 -2.359680 3.363841
									CHANNELS 3 Xrotation Yrotation Zrotation
									JOINT LeftHandThumb2
									{
										OFFSET 2.507072 -1.447464 1.447461
										CHANNELS 3 Xrotation Yrotation Zrotation
										JOINT LeftHandThumb3
										{
											OFFSET 2.898338 -1.673355 1.673357
											CHANNELS 3 Xrotation Yrotation Zrotation
											End Site
											{
												OFFSET -0.295959 3.727692 -0.131651
											}
										}
									}
								}
								JOINT LeftHandIndex1
								{
									OFFSET 14.190811 -0.254547 3.840278
									CHANNELS 3 Xrotation Yrotation Zrotation
									JOINT LeftHandIndex2
									{
										OFFSET 3.551727 0.000000 -0.000000
										CHANNELS 3 Xrotation Yrotation Zrotation
										JOINT LeftHandIndex3
										{
											OFFSET 2.894196 0.000000 0.000000
											CHANNELS 3 Xrotation Yrotation Zrotation
											End Site
											{
												OFFSET -1.000603 2.690872 0.366626
											}
										}
									}
								}
								JOINT LeftHandMiddle1
								{
									OFFSET 13.776489 0.000000 0.000000
									CHANNELS 3 Xrotation Yrotation Zrotation
									JOINT LeftHandMiddle2
									{
										OFFSET 3.438232 0.000000 0.000000
										CHANNELS 3 Xrotation Yrotation Zrotation
										JOINT LeftHandMiddle3
										{
											OFFSET 3.691551 0.000000 0.000000
											CHANNELS 3 Xrotation Yrotation Zrotation
											End Site
											{
												OFFSET -1.082298 3.499527 0.457670
											}
										}
									}
								}
								JOINT LeftHandRing1
								{
									OFFSET 13.966164 -0.268127 -3.067488
									CHANNELS 3 Xrotation Yrotation Zrotation
									JOINT LeftHandRing2
									{
										OFFSET 3.162567 0.000000 0.000000
										CHANNELS 3 Xrotation Yrotation Zrotation
										JOINT LeftHandRing3
										{
											OFFSET 3.324348 0.000000 0.000000
											CHANNELS 3 Xrotation Yrotation Zrotation
											End Site
											{
												OFFSET -0.861900 3.184998 0.405154
											}
										}
									}
								}
								JOINT LeftHandPinky1
								{
									OFFSET 13.131393 -0.168503 -5.746925
									CHANNELS 3 Xrotation Yrotation Zrotation
									JOINT LeftHandPinky2
									{
										OFFSET 2.849182 0.000000 0.000000
										CHANNELS 3 Xrotation Yrotation Zrotation
										JOINT LeftHandPinky3
										{
											OFFSET 2.805038 0.000000 0.000000
											CHANNELS 3 Xrotation Yrotation Zrotation
											End Site
											{
												OFFSET -0.882500 2.642609 0.325652
											}
										}
									}
								}
							}
							JOINT Left_Sleeve
							{
								OFFSET 6.592125 -0.646545 0.805568
								CHANNELS 3 Xrotation Yrotation Zrotation
								End Site
								{
									OFFSET -0.000179 20.275787 -0.000000
								}
							}
						}
					}
				}
				JOINT RightShoulder
				{
					OFFSET -5.731700 15.108002 -2.763700
					CHANNELS 3 Xrotation Yrotation Zrotation
					JOINT RightArm
					{
						OFFSET -9.825497 2.506317 -1.597400
						CHANNELS 3 Xrotation Yrotation Zrotation
						JOINT RightForeArm
						{
							OFFSET -21.966242 0.000000 0.000000
							CHANNELS 3 Xrotation Yrotation Zrotation
							JOINT RightHand
							{
								OFFSET -33.879032 0.000000 0.000000
								CHANNELS 3 Xrotation Yrotation Zrotation
								JOINT RightHandThumb1
								{
									OFFSET -6.715286 -2.359680 3.363841
									CHANNELS 3 Xrotation Yrotation Zrotation
									JOINT RightHandThumb2
									{
										OFFSET -2.507072 -1.447464 1.447461
										CHANNELS 3 Xrotation Yrotation Zrotation
										JOINT RightHandThumb3
										{
											OFFSET -2.898338 -1.673355 1.673357
											CHANNELS 3 Xrotation Yrotation Zrotation
											End Site
											{
												OFFSET 0.295959 3.727692 -0.131651
											}
										}
									}
								}
								JOINT RightHandIndex1
								{
									OFFSET -14.190811 -0.254547 3.840278
									CHANNELS 3 Xrotation Yrotation Zrotation
									JOINT RightHandIndex2
									{
										OFFSET -3.551727 0.000000 -0.000000
										CHANNELS 3 Xrotation Yrotation Zrotation
										JOINT RightHandIndex3
										{
											OFFSET -2.894196 0.000000 0.000000
											CHANNELS 3 Xrotation Yrotation Zrotation
											End Site
											{
												OFFSET 1.000603 2.690872 0.366626
											}
										}
									}
								}
								JOINT RightHandMiddle1
								{
									OFFSET -13.776489 0.000000 0.000000
									CHANNELS 3 Xrotation Yrotation Zrotation
									JOINT RightHandMiddle2
									{
										OFFSET -3.438232 0.000000 0.000000
										CHANNELS 3 Xrotation Yrotation Zrotation
										JOINT RightHandMiddle3
										{
											OFFSET -3.691551 0.000000 0.000000
											CHANNELS 3 Xrotation Yrotation Zrotation
											End Site
											{
												OFFSET 1.082298 3.499527 0.457670
											}
										}
									}
								}
								JOINT RightHandRing1
								{
									OFFSET -13.966164 -0.268127 -3.067488
									CHANNELS 3 Xrotation Yrotation Zrotation
									JOINT RightHandRing2
									{
										OFFSET -3.162567 0.000000 0.000000
										CHANNELS 3 Xrotation Yrotation Zrotation
										JOINT RightHandRing3
										{
											OFFSET -3.324348 0.000000 0.000000
											CHANNELS 3 Xrotation Yrotation Zrotation
											End Site
											{
												OFFSET 0.861900 3.184998 0.405154
											}
										}
									}
								}
								JOINT RightHandPinky1
								{
									OFFSET -13.131393 -0.168503 -5.746925
									CHANNELS 3 Xrotation Yrotation Zrotation
									JOINT RightHandPinky2
									{
										OFFSET -2.849182 0.000000 0.000000
										CHANNELS 3 Xrotation Yrotation Zrotation
										JOINT RightHandPinky3
										{
											OFFSET -2.805038 0.000000 0.000000
											CHANNELS 3 Xrotation Yrotation Zrotation
											End Site
											{
												OFFSET 0.882500 2.642609 0.325652
											}
										}
									}
								}
							}
							JOINT Right_Sleeve
							{
								OFFSET -6.592125 -0.646545 0.805568
								CHANNELS 3 Xrotation Yrotation Zrotation
								End Site
								{
									OFFSET 0.000179 20.275787 -0.000000
								}
							}
						}
					}
				}
				JOINT Bind_Right_JacketString
				{
					OFFSET -3.534800 11.969597 7.200700
					CHANNELS 3 Xrotation Yrotation Zrotation
					JOINT Bind_Right_JacketString1
					{
						OFFSET -0.319900 -6.102600 2.794100
						CHANNELS 3 Xrotation Yrotation Zrotation
						End Site
						{
							OFFSET 0.000000 6.719452 0.000000
						}
					}
				}
				JOINT Bind_Left_JacketString
				{
					OFFSET 2.904800 11.969597 7.200700
					CHANNELS 3 Xrotation Yrotation Zrotation
					JOINT Bind_Left_JacketString1
					{
						OFFSET 0.364800 -5.904503 3.186800
						CHANNELS 3 Xrotation Yrotation Zrotation
						End Site
						{
							OFFSET 0.000000 6.719513 0.000000
						}
					}
				}
				JOINT HairE
				{
					OFFSET 5.915200 17.612701 -11.592200
					CHANNELS 3 Xrotation Yrotation Zrotation
					JOINT HairE1
					{
						OFFSET 0.289200 -7.171898 -1.284500
						CHANNELS 3 Xrotation Yrotation Zrotation
						End Site
						{
							OFFSET 0.000000 7.291756 0.000000
						}
					}
				}
				JOINT HairF
				{
					OFFSET -0.864800 17.612701 -11.592200
					CHANNELS 3 Xrotation Yrotation Zrotation
					JOINT HairF1
					{
						OFFSET 0.000000 -14.087097 -2.127501
						CHANNELS 3 Xrotation Yrotation Zrotation
						End Site
						{
							OFFSET 0.000000 14.246841 0.000000
						}
					}
				}
				JOINT HairG
				{
					OFFSET -8.087700 17.612701 -11.592200
					CHANNELS 3 Xrotation Yrotation Zrotation
					JOINT HairG1
					{
						OFFSET -0.293600 -6.081398 -0.910100
						CHANNELS 3 Xrotation Yrotation Zrotation
						End Site
						{
							OFFSET 0.000000 6.156120 0.000000
						}
					}
				}
			}
		}
	}
	JOINT Pouch
	{
		OFFSET 0.000000 4.394501 10.847300
		CHANNELS 3 Xrotation Yrotation Zrotation
		End Site
		{
			OFFSET 0.000000 21.880577 0.000000
		}
	}
	JOINT Bag
	{
		OFFSET -13.229000 4.813004 -0.593300
		CHANNELS 3 Xrotation Yrotation Zrotation
		End Site
		{
			OFFSET 0.000000 21.880577 0.000000
		}
	}
	JOINT OccupyGuyFacialAnim_Joint
	{
		OFFSET 1.000000 -70.206398 -1.655000
		CHANNELS 3 Xrotation Yrotation Zrotation
		End Site
		{
			OFFSET 0.000000 21.880577 0.000000
		}
	}
}
MOTION
Frames: 4
Frame Time: 0.033333
-0.098665 67.685257 98.792816 -2.857241 5.446015 -2.058755 -0.000000 0.000000 -0.000000 -7.192983 2.125180 8.806558 60.948114 -2.540328 0.242343 31.890109 -1.121804 -9.686031 -0.000000 -0.000000 -0.000000 0.000000 0.000000 -0.000000 -24.193555 -8.006255 4.019131 37.574913 4.826182 1.194432 -8.844166 2.617246 -8.988673 -0.000000 -0.000001 0.000000 0.000000 0.000001 -0.000001 16.424028 -2.778787 -0.798924 -5.246172 -2.626259 2.028208 -5.186111 -2.520758 2.360814 -1.069018 0.898466 1.949584 -7.934405 2.224466 -2.214493 -0.000000 0.000000 0.000000 -0.000000 0.000000 0.000000 -0.000000 0.000000 0.000000 -0.000000 0.000000 0.000000 -0.000000 0.000000 0.000000 -0.000000 0.000000 0.000000 -0.000000 0.000000 0.000000 -0.000000 0.000000 0.000000 -0.000000 0.000000 0.000000 2.492948 2.969087 -2.818819 -8.434866 -14.697408 -71.908211 4.337346 -18.280481 -6.079636 -3.576843 0.605941 12.417276 -1.735223 10.348018 7.521727 6.310508 10.726368 -0.344239 0.000002 0.000001 0.000002 2.381553 0.667776 -13.151417 -0.003475 0.184681 -19.650546 0.000001 0.000000 -0.000000 -0.987801 2.485311 -18.099351 0.065022 0.470369 -26.267728 -0.000001 0.000000 -0.000001 -2.727390 5.581058 -17.732691 -0.025907 0.264618 -31.533327 -0.000003 0.000001 -0.000002 -4.585449 6.210923 -28.194353 0.015032 0.146991 -33.470649 -0.000001 0.000001 0.000003 0.000003 -0.000001 -0.000000 3.499056 -0.437079 4.406790 15.932892 28.389065 67.387056 9.176566 18.109637 5.184723 -31.329709 2.200501 -13.144930 -0.782987 -20.555722 -5.075642 5.596745 -13.773768 -2.751711 -0.000001 0.000001 0.000002 0.752909 1.489244 26.639713 -0.029085 -0.065600 22.224853 -0.000000 -0.000001 -0.000002 -0.264050 2.183473 28.961887 0.009333 0.005480 23.774087 0.000001 -0.000000 0.000003 -1.283205 3.636927 32.984759 -0.021114 -0.011691 26.480649 0.000000 -0.000002 -0.000005 -2.721701 5.344828 37.235726 0.006756 -0.019231 29.311542 -0.000002 0.000000 -0.000001 -0.000000 0.000000 0.000000 0.000000 0.000000 -0.000000 0.000000 0.000000 -0.000000 0.000000 0.000000 -0.000000 0.000000 0.000000 -0.000000 0.000000 0.000000 -0.000000 0.000000 0.000000 -0.000000 0.000000 0.000000 -0.000000 0.000000 0.000000 -0.000000 0.000000 0.000000 -0.000000 0.000000 0.000000 -0.000000 -0.000000 0.000000 -0.000000 -0.000000 0.000000 -0.000000 -0.000000 0.000000 -0.000000 
-0.202582 68.314247 102.165955 -2.731236 4.662079 -2.053600 0.000000 0.000000 -0.000000 -14.110147 2.370274 8.180103 66.855428 1.906497 0.586056 23.512014 -0.918402 -6.865996 -0.000001 0.000000 -0.000001 -0.000002 -0.000000 -0.000000 -20.188970 -6.954252 4.881809 36.096884 6.208934 1.259055 -11.004478 1.453551 -10.004347 -0.000000 0.000000 0.000000 -0.000000 -0.000001 -0.000001 16.026151 -1.809125 0.127944 -5.333833 -1.716470 1.064037 -5.316233 -1.637821 1.308409 -0.048320 0.069292 3.282009 -8.429387 1.890316 -2.462367 0.000000 -0.000000 -0.000000 0.000000 -0.000000 -0.000000 0.000000 -0.000000 -0.000000 0.000000 -0.000000 -0.000000 0.000000 -0.000000 -0.000000 0.000000 -0.000000 -0.000000 0.000000 -0.000000 -0.000000 0.000000 -0.000000 -0.000000 0.000000 -0.000000 -0.000000 2.389744 2.679504 -1.604469 -8.564210 -10.828777 -73.515594 6.033982 -14.982042 -7.614023 -0.366599 1.487168 12.264811 -2.531745 11.151097 8.436270 5.611776 10.173111 0.223271 -0.000000 0.000001 0.000004 2.149651 -1.121336 -16.139798 -0.014287 0.150052 -20.283768 0.000000 0.000000 -0.000002 -0.625337 0.483653 -20.867541 0.040296 0.357587 -25.869635 0.000002 0.000002 -0.000003 -1.895596 2.661542 -21.925034 -0.021530 0.205170 -30.676442 0.000001 0.000000 -0.000003 -3.843766 2.967193 -31.067225 0.002301 0.102387 -32.948436 -0.000005 0.000001 -0.000002 0.000002 0.000002 -0.000001 3.554749 -0.783776 5.212137 11.576685 28.449857 67.328125 9.880529 17.765935 6.058809 -29.427979 2.065100 -14.797064 -0.782987 -20.555724 -5.075679 5.323937 -13.072034 -2.642844 0.000001 -0.000003 0.000002 0.755187 1.491545 25.748176 -0.029675 -0.065127 21.623920 -0.000001 0.000002 0.000002 -0.262321 2.184113 28.070358 0.006750 0.005329 23.173328 -0.000001 -0.000002 -0.000005 -1.282560 3.637745 32.093269 -0.021203 -0.011406 25.879848 0.000001 0.000001 0.000001 -2.723460 5.349131 36.344577 0.005352 -0.018908 28.710878 -0.000001 -0.000000 0.000000 0.000002 0.000000 -0.000000 0.000000 -0.000000 0.000000 0.000000 -0.000000 -0.000000 0.000000 -0.000000 0.000000 0.000000 -0.000000 0.000000 0.000000 -0.000000 0.000000 0.000000 -0.000000 -0.000000 0.000000 -0.000000 0.000000 0.000000 -0.000000 0.000000 0.000000 -0.000000 0.000000 0.000000 -0.000000 -0.000000 0.000000 0.000000 -0.000000 0.000000 0.000000 -0.000000 0.000000 0.000000 -0.000000 
-0.203202 68.963425 105.478432 -2.605975 3.875978 -2.027855 0.000000 -0.000001 0.000000 -20.098030 2.968469 7.417112 68.794089 3.105113 0.703579 15.041009 -0.294628 -7.573641 -0.000000 -0.000001 0.000001 0.000000 -0.000000 -0.000000 -15.750754 -5.870528 5.533989 33.601423 6.253969 1.212597 -12.828530 1.678519 -10.139850 0.000000 -0.000000 -0.000000 0.000002 -0.000000 -0.000000 15.444130 -0.870063 0.659640 -5.161869 -0.965078 0.632832 -5.158943 -0.861976 0.806833 0.590365 -0.246008 2.900776 -8.280818 1.182222 -1.745047 0.000000 -0.000000 -0.000000 0.000000 -0.000000 -0.000000 0.000000 -0.000000 -0.000000 0.000000 -0.000000 -0.000000 0.000000 -0.000000 -0.000000 0.000000 -0.000000 -0.000000 0.000000 -0.000000 -0.000000 0.000000 -0.000000 -0.000000 0.000000 -0.000000 -0.000000 2.402758 2.827721 -1.779111 -6.586251 -9.672607 -73.921068 7.954925 -13.442313 -7.973865 -0.433847 1.921413 12.514109 -3.391964 11.978966 9.435086 4.867380 9.578455 0.814806 -0.000001 -0.000000 -0.000002 1.703906 -2.974985 -19.351905 -0.026743 0.113196 -20.958693 0.000001 0.000000 0.000002 -0.449384 -1.662711 -23.791169 0.021642 0.236232 -25.445417 0.000003 0.000001 -0.000003 -1.472350 -0.499286 -26.313548 -0.014676 0.142087 -29.763236 -0.000001 0.000002 -0.000001 -3.396237 -0.532970 -34.006627 -0.010433 0.054633 -32.391964 -0.000001 -0.000000 -0.000001 0.000002 0.000001 -0.000001 3.465636 0.074386 4.260490 6.720398 27.452924 68.638374 9.313427 18.286023 6.286796 -26.523209 1.279316 -15.337630 -0.782970 -20.555726 -5.075640 5.044079 -12.353879 -2.527855 0.000001 -0.000001 0.000001 0.757511 1.493845 24.835113 -0.030233 -0.064671 21.008603 -0.000000 -0.000001 -0.000002 -0.260175 2.187893 27.157382 0.003873 0.006712 22.558093 0.000002 -0.000002 -0.000001 -1.281562 3.641478 31.180357 -0.021264 -0.011048 25.264467 0.000002 0.000001 0.000000 -2.725187 5.353565 35.432020 0.003882 -0.017217 28.095575 0.000001 -0.000001 0.000002 0.000003 -0.000001 0.000001 -0.000000 0.000000 0.000000 -0.000000 0.000000 0.000000 -0.000000 0.000000 0.000000 -0.000000 0.000000 0.000000 -0.000000 0.000000 0.000000 -0.000000 0.000000 0.000000 -0.000000 0.000000 0.000000 -0.000000 0.000000 0.000000 -0.000000 0.000000 0.000000 -0.000000 0.000000 0.000000 0.000000 -0.000001 0.000000 0.000000 -0.000001 0.000000 0.000000 -0.000001 0.000000 
-0.172725 69.591019 108.630775 -2.489690 3.128434 -1.941024 0.000000 -0.000000 -0.000000 -24.366671 3.778647 6.551468 66.949480 2.212080 0.582479 4.041506 0.330333 -7.640292 0.000001 0.000001 -0.000001 -0.000000 -0.000000 -0.000000 -10.890725 -5.092945 5.857264 29.868800 6.595375 1.174829 -13.760897 1.770143 -9.972502 -0.000000 -0.000000 -0.000000 -0.000000 -0.000000 -0.000000 14.783991 0.117001 1.782091 -4.784758 0.097460 -0.453833 -4.790384 0.097990 -0.392223 0.678999 -1.157604 3.373759 -7.334614 0.367764 -1.656413 -0.000000 -0.000000 0.000000 -0.000000 -0.000000 0.000000 -0.000000 -0.000000 0.000000 -0.000000 -0.000000 0.000000 -0.000000 0.000000 0.000000 -0.000000 -0.000000 0.000000 -0.000000 0.000000 0.000000 -0.000000 -0.000000 0.000000 -0.000000 -0.000000 0.000000 2.343636 2.150151 -0.797231 -5.069646 -8.678660 -74.473862 9.630472 -11.829092 -8.467483 -0.428371 2.060707 12.124826 -4.236749 12.753165 10.426996 4.145896 8.997340 1.375092 0.000001 0.000001 -0.000001 1.079454 -4.703648 -22.500971 -0.039677 0.077723 -21.612867 0.000003 0.000000 -0.000000 -0.485445 -3.740745 -26.610219 0.003581 0.118511 -25.034093 0.000000 -0.000002 0.000000 -1.515382 -3.561069 -30.526076 -0.006066 0.081152 -28.878166 -0.000003 -0.000001 0.000001 -3.293249 -3.941484 -36.765600 -0.017542 0.007954 -31.852638 -0.000001 0.000000 0.000003 0.000002 -0.000001 0.000001 3.483073 0.090834 4.812536 2.323550 26.637002 69.097773 8.238808 18.683101 6.279023 -23.338328 0.929215 -14.706768 -0.782975 -20.555710 -5.075671 4.777622 -11.669980 -2.413612 -0.000001 -0.000000 0.000003 0.759766 1.496032 23.965090 -0.030814 -0.064217 20.422209 -0.000001 -0.000000 -0.000002 -0.257801 2.194907 26.287422 0.000995 0.009397 21.971849 0.000003 -0.000000 -0.000001 -1.280379 3.648388 30.310498 -0.021391 -0.007013 24.678153 0.000003 -0.000000 -0.000002 -2.726796 5.357791 34.562424 0.002480 -0.014466 27.509316 -0.000002 0.000001 0.000001 0.000004 -0.000001 0.000000 -0.000000 -0.000000 0.000000 0.000000 -0.000000 -0.000000 -0.000000 -0.000000 0.000000 -0.000000 -0.000000 0.000000 -0.000000 -0.000000 0.000000 0.000000 -0.000000 0.000000 -0.000000 -0.000000 0.000000 -0.000000 -0.000000 0.000000 -0.000000 -0.000000 0.000000 0.000000 -0.000000 0.000000 0.000000 -0.000000 -0.000000 0.000000 -0.000000 -0.000000 0.000000 -0.000000 -0.000000 
